<?xml version="1.0" standalone="no"?>
<!DOCTYPE svg PUBLIC "-//W3C//DTD SVG 20010904//EN"
 "http://www.w3.org/TR/2001/REC-SVG-20010904/DTD/svg10.dtd">
<svg version="1.0" xmlns="http://www.w3.org/2000/svg"
 width="260.000000pt" height="260.000000pt" viewBox="0 0 260.000000 260.000000"
 preserveAspectRatio="xMidYMid meet">
<metadata>
Created by potrace 1.11, written by Peter Selinger 2001-2013
</metadata>
<g transform="translate(0.000000,260.000000) scale(0.100000,-0.100000)"
fill="#000000" stroke="none">
<path d="M1267 2584 c-1 -1 -36 -4 -77 -7 -210 -15 -420 -89 -607 -214 -114
-75 -272 -234 -348 -348 -97 -148 -182 -360 -200 -504 -4 -30 -9 -63 -11 -75
-6 -26 -6 -234 0 -261 2 -11 7 -46 10 -78 4 -32 21 -103 37 -159 142 -477 549
-830 1044 -906 93 -14 347 -7 436 12 543 116 941 544 1019 1095 9 67 7 300 -5
361 -17 98 -30 148 -61 234 -165 464 -600 802 -1084 842 -79 7 -150 10 -153 8z
m-749 -766 c6 -18 60 -217 122 -443 61 -225 118 -432 126 -460 7 -27 27 -97
42 -154 16 -57 31 -100 34 -95 3 5 24 72 46 149 42 145 172 586 196 665 8 25
35 118 62 208 l47 162 118 0 117 0 11 -32 c5 -18 33 -112 61 -208 28 -96 62
-211 75 -255 14 -44 54 -181 91 -305 89 -304 116 -391 119 -388 2 2 29 95 60
208 31 113 77 279 102 370 25 91 46 172 48 180 2 8 19 71 38 140 20 69 46 162
58 208 l22 82 108 0 107 0 -10 -37 c-6 -21 -68 -236 -138 -478 -70 -242 -163
-562 -206 -712 l-79 -272 -50 -3 c-27 -2 -77 -2 -110 0 l-60 4 -28 96 c-15 53
-41 140 -57 192 -16 52 -66 217 -109 365 -143 483 -165 555 -171 555 -3 0 -18
-44 -33 -97 -55 -191 -76 -263 -201 -685 -69 -234 -126 -428 -126 -430 0 -5
-211 0 -217 5 -2 3 -52 167 -109 364 -57 197 -113 387 -124 423 -61 203 -200
689 -200 699 0 7 33 11 104 11 l104 0 10 -32z"/>
</g>
</svg>
